<?xml version="1.0" encoding="utf-8"?>
<!-- Generator: Adobe Illustrator 28.2.0, SVG Export Plug-In . SVG Version: 6.00 Build 0)  -->
<svg version="1.1" id="Layer_1" xmlns="http://www.w3.org/2000/svg" xmlns:xlink="http://www.w3.org/1999/xlink" x="0px" y="0px"
	 viewBox="0 0 2436 2436" style="enable-background:new 0 0 2436 2436;" xml:space="preserve">
<style type="text/css">
	.st0{fill:#9E6070;}
</style>
<g>
	<path class="st0" d="M1640.08,1036.66h-232.45c-11.19-130.34-93.16-222.76-219.72-267.61c103.61-53.53,162.32-146.77,162.32-262.47
		c0-186.5-155.41-316-473.15-316H258.89v1208.76h652.73c64.73,0,123.4-4.88,175.89-14.35v860.43h341.91v-316h210.67
		c329.82,0,537.03-170.95,537.03-445.52C2177.11,1207.62,1969.9,1036.66,1640.08,1036.66z M597.34,437.51h234.83
		c113.97,0,172.68,39.71,172.68,115.7c0,77.71-58.71,117.42-172.68,117.42H597.34V437.51z M883.98,1152.4H597.34V907.2h286.64
		c117.42,0,179.59,39.71,179.59,122.59C1063.57,1112.69,1001.41,1152.4,883.98,1152.4z M1619.35,1660.04h-189.94v-354h189.94
		c141.59,0,212.39,65.62,212.39,177.86C1831.75,1594.42,1760.94,1660.04,1619.35,1660.04z"/>
</g>
</svg>
